<?xml version="1.0" encoding="UTF-8"?>
<svg id="Layer_1" xmlns="http://www.w3.org/2000/svg" version="1.1" viewBox="0 0 161.1 79.9">
  <!-- Generator: Adobe Illustrator 29.1.0, SVG Export Plug-In . SVG Version: 2.1.0 Build 142)  -->
  <defs>
    <style>
      .st0 {
        fill: #d4a941;
      }

      .st1 {
        fill: #0a1f42;
      }

      .st2 {
        fill: #fefefe;
      }

      .st3 {
        fill: #fdfefe;
      }

      .st4 {
        fill: #fcfdfd;
      }
    </style>
  </defs>
  <rect class="st1" x="-1.1" y="-1.9" width="163.1" height="83.5"/>
  <path class="st0" d="M88.6,58v2.9H23.5c-.4,0-2.2-1.2-2.5-1.5-.5-.5-1.4-2-1.4-2.6v-19.5h-3.7c-.3,0-1.3-.6-1.6-.8-1.9-1.5-1.9-4.1-.5-6,7.3-6.1,14.3-12.8,21.7-18.8,2.5-2,4.3-3.5,7.7-2.2,5.9,4.2,10.9,9.4,16.6,13.8,1.5,1.6-.2,3.6-2,2.2-5-3.7-9.8-9.3-14.8-12.8-1.7-1.2-2.7-1.1-4.4.1l-22.2,19c-3.1,4.5,5.3,1.1,5.9,3.4v20.5c-.1.7,1.4,2.3,1.8,2.3h64.4,0Z"/>
  <path class="st2" d="M54.1,49.5c-2.3.7-4,.2-5.5-1.5-.3-.4-.5-1.1-.8-1.3-.5-.4-1.7-.5-2.5-1.1-4.6-3.2-2.9-13.7,5-12.5,6,1,6.7,10.2,1.9,12.7-.7.3-2.6.5-1.1,1.3,1,.6,2.5.2,2.6.3.2.2.6,1.8.5,2h0Z"/>
  <path class="st2" d="M97.7,33.3l4.3,13.1c-3.9.6-2.4-1.1-3.6-2.7-.6-.8-3.8-.2-4.9-.3-.7.3-.9,2.9-1.1,3.1s-2.3,0-2.8,0c1-1.5,4-12.8,4.6-13.1.2,0,3.4-.1,3.5,0h0Z"/>
  <path class="st2" d="M120.3,33.3l4.3,13.1c-4,.7-2.4-1.4-3.6-2.8-.4-.5-4.3-.5-4.9-.3-.6.2-.9,2.9-1.1,3.1s-2.1,0-2.6,0l4.3-13.1s3.6,0,3.5,0Z"/>
  <path class="st2" d="M38,33.3c.6.4,3.6,11.7,4.6,13.1-.6-.1-2.5.2-2.8,0-.2-.1-.8-2.6-1-3-.8,0-4.8-.2-5,.1-.3.4-.7,2.8-1,2.9-.3.2-2,0-2.6,0l4.3-13.1c.1-.1,3.4,0,3.5,0h0Z"/>
  <path class="st3" d="M59.6,33.3v9c0,0,.5,1.2.6,1.3,1.2,1.5,5.1.9,5.1-1.5v-8.7h2.4v9.9c0,.3-.9,1.8-1.2,2.2-1.6,1.6-5.4,1.7-7.4.6-3.5-1.9-1.8-9.4-2.2-12.7h2.6Z"/>
  <path class="st2" d="M106.1,33.1c2-.3,4.1.1,5.6,1.5-1.4,2.9-1.5,1.2-3.1.9-1.3-.3-4.3-.2-3.5,1.8.8,1.8,5.8.7,6.8,3.8,1.8,5.6-5,7-8.6,4.5-2-1.3-.9-1.8.3-3.2,1,2.1,6.5,3.1,5.8,0-.3-1.5-3.6-1.5-5-2.2-3.4-1.9-2.2-6.5,1.6-7h0Z"/>
  <path class="st2" d="M133.2,36.4c-.4.2-1.4-.6-1.9-.8-1.5-.5-4.6-.2-3.5,2,.6,1.2,6.3.5,6.8,4,.9,5.7-6.2,6.5-9.3,3.6-1.4-1.3,0-1.4.8-2.8,1.1,2.3,6.9,3.1,5.8-.3-.5-1.6-6.2-.8-6.8-4.2-.8-4.3,3.5-5.5,7-4.5.5.1,2,.8,2.1,1.3,0,0-.9,1.7-1,1.7h0Z"/>
  <path class="st3" d="M87.7,41.9c1.9.7,2.8.8,1.4,2.8-2.5,3.5-8.6,2.5-10.2-1.6-2.2-5.7,1.6-11.8,8-9.7.8.3,2.9,1.6,2.6,2.6,0,.2-1.7,1.4-1.8,1.4s-1-1.5-1.8-1.8c-4.5-1.4-5.4,2.9-4.7,6.4s5.9,3.3,6.4,0h0Z"/>
  <rect class="st4" x="70.4" y="33.3" width="2.6" height="13.2"/>
  <path class="st1" d="M94.2,41.2c.2-.6,1.3-5,1.6-5,.5-.1.3.2.5.5.6,1.3,1,3.1,1.3,4.5h-3.4Z"/>
  <path class="st1" d="M116.7,41.2c.3-.7,1.3-5,1.6-5,.5-.1.3.2.5.5.7,1.4.9,3.1,1.6,4.5h-3.6Z"/>
  <polygon class="st1" points="38 41.2 34.5 41.2 36.2 36.2 38 41.2"/>
  <ellipse class="st1" cx="48.9" cy="39.8" rx="4.2" ry="4.5"/>
</svg>